<mxfile host="app.diagrams.net" modified="2024-02-05T11:10:19.647Z" agent="Mozilla/5.0 (Windows NT 10.0; Win64; x64) AppleWebKit/537.36 (KHTML, like Gecko) Chrome/121.0.0.0 Safari/537.36" version="23.1.1" etag="972f2n824WhAJcHU3AAO" type="github">
  <diagram name="第 1 页" id="ZAWH_CJpqViNw-ZkkkB1">
    <mxGraphModel>
      <root>
        <mxCell id="0" />
        <mxCell id="1" parent="0" />
      </root>
    </mxGraphModel>
  </diagram>
</mxfile>
